<svg width="360" height="92" viewBox="0 0 360 92" fill="none" xmlns="http://www.w3.org/2000/svg">
<path d="M21.228 64L25.596 36.448H35.284L34.22 43.224H33.716C34.3507 41.0587 35.508 39.3227 37.188 38.016C38.9053 36.7093 40.9773 35.9813 43.404 35.832L46.092 35.664L45.644 44.064L39.428 44.68C38.1213 44.792 37.0573 45.072 36.236 45.52C35.452 45.968 34.836 46.6213 34.388 47.48C33.9773 48.3013 33.66 49.384 33.436 50.728L31.364 64H21.228ZM52.5653 64.616C50.6239 64.616 48.9439 64.2053 47.5253 63.384C46.1439 62.5627 45.1546 61.2747 44.5573 59.52C43.9973 57.7653 43.9226 55.5067 44.3333 52.744L46.9093 36.448H56.8773L54.3573 52.576C54.2079 53.5093 54.1893 54.312 54.3013 54.984C54.4506 55.656 54.7493 56.16 55.1973 56.496C55.6453 56.832 56.2799 57 57.1013 57C58.0719 57 58.9306 56.776 59.6773 56.328C60.4613 55.8427 61.0959 55.152 61.5813 54.256C62.1039 53.36 62.4586 52.296 62.6453 51.064L64.9413 36.448H74.9093L70.5413 64H60.7973L61.5253 59.184H61.9733C61.0399 60.9387 59.7519 62.2827 58.1093 63.216C56.4666 64.1493 54.6186 64.616 52.5653 64.616ZM92.0781 64.616C90.0994 64.616 88.3634 64.1867 86.8701 63.328C85.3767 62.432 84.3127 61.144 83.6781 59.464H83.9581L83.2301 64H73.5421L79.8141 24.52H89.7821L87.1501 40.816H86.5901C87.2994 39.7707 88.1207 38.8747 89.0541 38.128C90.0247 37.344 91.0701 36.7653 92.1901 36.392C93.3474 36.0187 94.5607 35.832 95.8301 35.832C97.8834 35.832 99.6754 36.3173 101.206 37.288C102.737 38.2587 103.913 39.64 104.734 41.432C105.593 43.224 106.022 45.352 106.022 47.816C106.022 51.0267 105.443 53.9013 104.286 56.44C103.129 58.9787 101.505 60.976 99.4141 62.432C97.3234 63.888 94.8781 64.616 92.0781 64.616ZM89.9501 57.28C91.2194 57.28 92.3021 56.9067 93.1981 56.16C94.0941 55.376 94.7847 54.312 95.2701 52.968C95.7554 51.624 95.9981 50.0933 95.9981 48.376C95.9981 46.696 95.6061 45.408 94.8221 44.512C94.0754 43.616 93.0301 43.168 91.6861 43.168C90.4167 43.168 89.3341 43.56 88.4381 44.344C87.5421 45.0907 86.8327 46.136 86.3101 47.48C85.8247 48.824 85.5821 50.3547 85.5821 52.072C85.5821 53.752 85.9741 55.04 86.7581 55.936C87.5421 56.832 88.6061 57.28 89.9501 57.28ZM124.005 64.616C122.026 64.616 120.29 64.1867 118.797 63.328C117.303 62.432 116.239 61.144 115.605 59.464H115.885L115.157 64H105.469L111.741 24.52H121.709L119.077 40.816H118.517C119.226 39.7707 120.047 38.8747 120.981 38.128C121.951 37.344 122.997 36.7653 124.117 36.392C125.274 36.0187 126.487 35.832 127.757 35.832C129.81 35.832 131.602 36.3173 133.133 37.288C134.663 38.2587 135.839 39.64 136.661 41.432C137.519 43.224 137.949 45.352 137.949 47.816C137.949 51.0267 137.37 53.9013 136.213 56.44C135.055 58.9787 133.431 60.976 131.341 62.432C129.25 63.888 126.805 64.616 124.005 64.616ZM121.877 57.28C123.146 57.28 124.229 56.9067 125.125 56.16C126.021 55.376 126.711 54.312 127.197 52.968C127.682 51.624 127.925 50.0933 127.925 48.376C127.925 46.696 127.533 45.408 126.749 44.512C126.002 43.616 124.957 43.168 123.613 43.168C122.343 43.168 121.261 43.56 120.365 44.344C119.469 45.0907 118.759 46.136 118.237 47.48C117.751 48.824 117.509 50.3547 117.509 52.072C117.509 53.752 117.901 55.04 118.685 55.936C119.469 56.832 120.533 57.28 121.877 57.28ZM152.963 64.616C150.014 64.616 147.438 64.0933 145.235 63.048C143.033 61.9653 141.315 60.4533 140.083 58.512C138.851 56.5707 138.235 54.312 138.235 51.736C138.235 48.5627 138.926 45.7813 140.307 43.392C141.726 41.0027 143.63 39.1547 146.019 37.848C148.446 36.504 151.134 35.832 154.083 35.832C157.219 35.832 159.739 36.504 161.643 37.848C163.585 39.1547 164.929 40.9467 165.675 43.224C166.422 45.5013 166.609 48.0213 166.235 50.784L166.011 52.24H146.355L147.027 47.536H159.459L158.563 48.264C158.75 47.1067 158.694 46.08 158.395 45.184C158.134 44.288 157.63 43.5973 156.883 43.112C156.174 42.5893 155.203 42.328 153.971 42.328C152.777 42.328 151.769 42.5893 150.947 43.112C150.126 43.6347 149.454 44.344 148.931 45.24C148.446 46.136 148.129 47.144 147.979 48.264L147.587 50.448C147.363 51.904 147.457 53.1547 147.867 54.2C148.315 55.208 149.062 55.9733 150.107 56.496C151.19 57.0187 152.515 57.28 154.083 57.28C155.614 57.28 157.107 57.0747 158.563 56.664C160.057 56.216 161.345 55.6 162.427 54.816L164.499 61.312C163.118 62.3573 161.419 63.1787 159.403 63.776C157.425 64.336 155.278 64.616 152.963 64.616ZM165.712 64L170.08 36.448H179.768L178.704 43.224H178.2C178.835 41.0587 179.992 39.3227 181.672 38.016C183.39 36.7093 185.462 35.9813 187.888 35.832L190.576 35.664L190.128 44.064L183.912 44.68C182.606 44.792 181.542 45.072 180.72 45.52C179.936 45.968 179.32 46.6213 178.872 47.48C178.462 48.3013 178.144 49.384 177.92 50.728L175.848 64H165.712ZM199.016 64.616C196.59 64.616 194.256 64.3547 192.016 63.832C189.814 63.272 187.947 62.4693 186.416 61.424L189.16 55.096C190.094 55.656 191.102 56.16 192.184 56.608C193.304 57.0187 194.443 57.336 195.6 57.56C196.795 57.784 197.915 57.896 198.96 57.896C200.416 57.896 201.48 57.672 202.152 57.224C202.824 56.776 203.16 56.216 203.16 55.544C203.16 55.0213 202.992 54.6293 202.656 54.368C202.32 54.1067 201.723 53.9013 200.864 53.752L195.88 52.912C193.566 52.5387 191.774 51.7173 190.504 50.448C189.272 49.1413 188.656 47.536 188.656 45.632C188.656 43.9147 189.16 42.3093 190.168 40.816C191.214 39.3227 192.744 38.128 194.76 37.232C196.814 36.2987 199.371 35.832 202.432 35.832C203.552 35.832 204.728 35.944 205.96 36.168C207.23 36.3547 208.462 36.6533 209.656 37.064C210.851 37.4747 211.934 38.016 212.904 38.688L210.216 44.904C208.947 44.0827 207.584 43.4853 206.128 43.112C204.672 42.7013 203.254 42.496 201.872 42.496C200.342 42.496 199.222 42.7387 198.512 43.224C197.803 43.672 197.448 44.2693 197.448 45.016C197.448 45.4267 197.579 45.7813 197.84 46.08C198.139 46.3787 198.624 46.584 199.296 46.696L204.28 47.48C206.856 47.928 208.779 48.7867 210.048 50.056C211.318 51.3253 211.952 52.912 211.952 54.816C211.952 56.944 211.411 58.736 210.328 60.192C209.283 61.648 207.79 62.7493 205.848 63.496C203.907 64.2427 201.63 64.616 199.016 64.616ZM210.277 74.08L216.269 36.448H225.957L225.285 40.816H225.005C225.677 39.7707 226.48 38.8747 227.413 38.128C228.384 37.344 229.429 36.7653 230.549 36.392C231.707 36.0187 232.92 35.832 234.189 35.832C236.243 35.832 238.035 36.3173 239.565 37.288C241.096 38.2587 242.272 39.64 243.093 41.432C243.952 43.224 244.381 45.352 244.381 47.816C244.381 51.0267 243.803 53.9013 242.645 56.44C241.488 58.9787 239.864 60.976 237.773 62.432C235.683 63.888 233.237 64.616 230.437 64.616C228.459 64.616 226.723 64.1867 225.229 63.328C223.736 62.432 222.672 61.144 222.037 59.464L222.541 59.52L220.245 74.08H210.277ZM228.309 57.28C229.579 57.28 230.661 56.9067 231.557 56.16C232.453 55.376 233.144 54.312 233.629 52.968C234.115 51.624 234.357 50.0933 234.357 48.376C234.357 46.696 233.965 45.408 233.181 44.512C232.435 43.616 231.389 43.168 230.045 43.168C228.776 43.168 227.693 43.56 226.797 44.344C225.901 45.0907 225.192 46.136 224.669 47.48C224.184 48.824 223.941 50.3547 223.941 52.072C223.941 53.752 224.333 55.04 225.117 55.936C225.901 56.832 226.965 57.28 228.309 57.28ZM258.892 64.616C255.868 64.616 253.292 64.0933 251.164 63.048C249.073 61.9653 247.468 60.4533 246.348 58.512C245.265 56.5707 244.724 54.312 244.724 51.736C244.724 49.0853 245.172 46.7707 246.068 44.792C247.001 42.8133 248.233 41.152 249.764 39.808C251.332 38.464 253.087 37.4747 255.028 36.84C256.969 36.168 258.967 35.832 261.02 35.832C264.007 35.832 266.545 36.3733 268.636 37.456C270.764 38.5013 272.388 39.9947 273.508 41.936C274.628 43.84 275.188 46.08 275.188 48.656C275.188 51.344 274.721 53.6773 273.788 55.656C272.892 57.6347 271.66 59.296 270.092 60.64C268.561 61.984 266.825 62.992 264.884 63.664C262.943 64.2987 260.945 64.616 258.892 64.616ZM259.06 57.28C260.329 57.28 261.412 56.9067 262.308 56.16C263.241 55.376 263.951 54.312 264.436 52.968C264.921 51.624 265.164 50.0933 265.164 48.376C265.164 46.696 264.772 45.408 263.988 44.512C263.241 43.616 262.177 43.168 260.796 43.168C259.564 43.168 258.481 43.5413 257.548 44.288C256.652 45.0347 255.961 46.08 255.476 47.424C254.991 48.768 254.748 50.3173 254.748 52.072C254.748 53.752 255.121 55.04 255.868 55.936C256.652 56.832 257.716 57.28 259.06 57.28ZM289.78 64.616C286.756 64.616 284.18 64.0933 282.052 63.048C279.961 61.9653 278.356 60.4533 277.236 58.512C276.153 56.5707 275.612 54.312 275.612 51.736C275.612 49.0853 276.06 46.7707 276.956 44.792C277.889 42.8133 279.121 41.152 280.652 39.808C282.22 38.464 283.974 37.4747 285.916 36.84C287.857 36.168 289.854 35.832 291.908 35.832C294.894 35.832 297.433 36.3733 299.524 37.456C301.652 38.5013 303.276 39.9947 304.396 41.936C305.516 43.84 306.076 46.08 306.076 48.656C306.076 51.344 305.609 53.6773 304.676 55.656C303.78 57.6347 302.548 59.296 300.98 60.64C299.449 61.984 297.713 62.992 295.772 63.664C293.83 64.2987 291.833 64.616 289.78 64.616ZM289.948 57.28C291.217 57.28 292.3 56.9067 293.196 56.16C294.129 55.376 294.838 54.312 295.324 52.968C295.809 51.624 296.052 50.0933 296.052 48.376C296.052 46.696 295.66 45.408 294.876 44.512C294.129 43.616 293.065 43.168 291.684 43.168C290.452 43.168 289.369 43.5413 288.436 44.288C287.54 45.0347 286.849 46.08 286.364 47.424C285.878 48.768 285.636 50.3173 285.636 52.072C285.636 53.752 286.009 55.04 286.756 55.936C287.54 56.832 288.604 57.28 289.948 57.28ZM305.603 64L309.971 36.448H319.659L318.931 41.208H318.539C319.51 39.4533 320.816 38.128 322.459 37.232C324.102 36.2987 326.006 35.832 328.171 35.832C330.15 35.832 331.83 36.2427 333.211 37.064C334.63 37.8853 335.619 39.1733 336.179 40.928C336.776 42.6827 336.87 44.9413 336.459 47.704L333.883 64H323.915L326.435 47.872C326.584 46.9013 326.584 46.0987 326.435 45.464C326.323 44.792 326.024 44.288 325.539 43.952C325.091 43.616 324.438 43.448 323.579 43.448C322.571 43.448 321.656 43.6907 320.835 44.176C320.051 44.624 319.416 45.296 318.931 46.192C318.446 47.0507 318.091 48.096 317.867 49.328L315.571 64H305.603Z" fill="white"/>
</svg>
