<svg width="320" height="52" viewBox="0 0 320 52" fill="none" xmlns="http://www.w3.org/2000/svg">
<rect width="320" height="51" transform="translate(0 0.5)" fill="white"/>
<path d="M1.728 40.5L6.096 12.948H15.784L14.72 19.724H14.216C14.8507 17.5587 16.008 15.8227 17.688 14.516C19.4053 13.2093 21.4773 12.4813 23.904 12.332L26.592 12.164L26.144 20.564L19.928 21.18C18.6213 21.292 17.5573 21.572 16.736 22.02C15.952 22.468 15.336 23.1213 14.888 23.98C14.4773 24.8013 14.16 25.884 13.936 27.228L11.864 40.5H1.728ZM33.0653 41.116C31.1239 41.116 29.4439 40.7053 28.0253 39.884C26.6439 39.0627 25.6546 37.7747 25.0573 36.02C24.4973 34.2653 24.4226 32.0067 24.8333 29.244L27.4093 12.948H37.3773L34.8573 29.076C34.7079 30.0093 34.6893 30.812 34.8013 31.484C34.9506 32.156 35.2493 32.66 35.6973 32.996C36.1453 33.332 36.7799 33.5 37.6013 33.5C38.5719 33.5 39.4306 33.276 40.1773 32.828C40.9613 32.3427 41.5959 31.652 42.0813 30.756C42.6039 29.86 42.9586 28.796 43.1453 27.564L45.4413 12.948H55.4093L51.0413 40.5H41.2973L42.0253 35.684H42.4733C41.5399 37.4387 40.2519 38.7827 38.6093 39.716C36.9666 40.6493 35.1186 41.116 33.0653 41.116ZM72.5781 41.116C70.5994 41.116 68.8634 40.6867 67.3701 39.828C65.8767 38.932 64.8127 37.644 64.1781 35.964H64.4581L63.7301 40.5H54.0421L60.3141 1.02H70.2821L67.6501 17.316H67.0901C67.7994 16.2707 68.6207 15.3747 69.5541 14.628C70.5247 13.844 71.5701 13.2653 72.6901 12.892C73.8474 12.5187 75.0607 12.332 76.3301 12.332C78.3834 12.332 80.1754 12.8173 81.7061 13.788C83.2367 14.7587 84.4127 16.14 85.2341 17.932C86.0927 19.724 86.5221 21.852 86.5221 24.316C86.5221 27.5267 85.9434 30.4013 84.7861 32.94C83.6287 35.4787 82.0047 37.476 79.9141 38.932C77.8234 40.388 75.3781 41.116 72.5781 41.116ZM70.4501 33.78C71.7194 33.78 72.8021 33.4067 73.6981 32.66C74.5941 31.876 75.2847 30.812 75.7701 29.468C76.2554 28.124 76.4981 26.5933 76.4981 24.876C76.4981 23.196 76.1061 21.908 75.3221 21.012C74.5754 20.116 73.5301 19.668 72.1861 19.668C70.9167 19.668 69.8341 20.06 68.9381 20.844C68.0421 21.5907 67.3327 22.636 66.8101 23.98C66.3247 25.324 66.0821 26.8547 66.0821 28.572C66.0821 30.252 66.4741 31.54 67.2581 32.436C68.0421 33.332 69.1061 33.78 70.4501 33.78ZM104.505 41.116C102.526 41.116 100.79 40.6867 99.2966 39.828C97.8033 38.932 96.7393 37.644 96.1046 35.964H96.3846L95.6566 40.5H85.9686L92.2406 1.02H102.209L99.5766 17.316H99.0166C99.726 16.2707 100.547 15.3747 101.481 14.628C102.451 13.844 103.497 13.2653 104.617 12.892C105.774 12.5187 106.987 12.332 108.257 12.332C110.31 12.332 112.102 12.8173 113.633 13.788C115.163 14.7587 116.339 16.14 117.161 17.932C118.019 19.724 118.449 21.852 118.449 24.316C118.449 27.5267 117.87 30.4013 116.713 32.94C115.555 35.4787 113.931 37.476 111.841 38.932C109.75 40.388 107.305 41.116 104.505 41.116ZM102.377 33.78C103.646 33.78 104.729 33.4067 105.625 32.66C106.521 31.876 107.211 30.812 107.697 29.468C108.182 28.124 108.425 26.5933 108.425 24.876C108.425 23.196 108.033 21.908 107.249 21.012C106.502 20.116 105.457 19.668 104.113 19.668C102.843 19.668 101.761 20.06 100.865 20.844C99.9686 21.5907 99.2593 22.636 98.7366 23.98C98.2513 25.324 98.0086 26.8547 98.0086 28.572C98.0086 30.252 98.4006 31.54 99.1846 32.436C99.9686 33.332 101.033 33.78 102.377 33.78ZM133.463 41.116C130.514 41.116 127.938 40.5933 125.735 39.548C123.533 38.4653 121.815 36.9533 120.583 35.012C119.351 33.0707 118.735 30.812 118.735 28.236C118.735 25.0627 119.426 22.2813 120.807 19.892C122.226 17.5027 124.13 15.6547 126.519 14.348C128.946 13.004 131.634 12.332 134.583 12.332C137.719 12.332 140.239 13.004 142.143 14.348C144.085 15.6547 145.429 17.4467 146.175 19.724C146.922 22.0013 147.109 24.5213 146.735 27.284L146.511 28.74H126.855L127.527 24.036H139.959L139.063 24.764C139.25 23.6067 139.194 22.58 138.895 21.684C138.634 20.788 138.13 20.0973 137.383 19.612C136.674 19.0893 135.703 18.828 134.471 18.828C133.277 18.828 132.269 19.0893 131.447 19.612C130.626 20.1347 129.954 20.844 129.431 21.74C128.946 22.636 128.629 23.644 128.479 24.764L128.087 26.948C127.863 28.404 127.957 29.6547 128.367 30.7C128.815 31.708 129.562 32.4733 130.607 32.996C131.69 33.5187 133.015 33.78 134.583 33.78C136.114 33.78 137.607 33.5747 139.063 33.164C140.557 32.716 141.845 32.1 142.927 31.316L144.999 37.812C143.618 38.8573 141.919 39.6787 139.903 40.276C137.925 40.836 135.778 41.116 133.463 41.116ZM146.212 40.5L150.58 12.948H160.268L159.204 19.724H158.7C159.335 17.5587 160.492 15.8227 162.172 14.516C163.89 13.2093 165.962 12.4813 168.388 12.332L171.076 12.164L170.628 20.564L164.412 21.18C163.106 21.292 162.042 21.572 161.22 22.02C160.436 22.468 159.82 23.1213 159.372 23.98C158.962 24.8013 158.644 25.884 158.42 27.228L156.348 40.5H146.212ZM179.516 41.116C177.09 41.116 174.756 40.8547 172.516 40.332C170.314 39.772 168.447 38.9693 166.916 37.924L169.66 31.596C170.594 32.156 171.602 32.66 172.684 33.108C173.804 33.5187 174.943 33.836 176.1 34.06C177.295 34.284 178.415 34.396 179.46 34.396C180.916 34.396 181.98 34.172 182.652 33.724C183.324 33.276 183.66 32.716 183.66 32.044C183.66 31.5213 183.492 31.1293 183.156 30.868C182.82 30.6067 182.223 30.4013 181.364 30.252L176.38 29.412C174.066 29.0387 172.274 28.2173 171.004 26.948C169.772 25.6413 169.156 24.036 169.156 22.132C169.156 20.4147 169.66 18.8093 170.668 17.316C171.714 15.8227 173.244 14.628 175.26 13.732C177.314 12.7987 179.871 12.332 182.932 12.332C184.052 12.332 185.228 12.444 186.46 12.668C187.73 12.8547 188.962 13.1533 190.156 13.564C191.351 13.9747 192.434 14.516 193.404 15.188L190.716 21.404C189.447 20.5827 188.084 19.9853 186.628 19.612C185.172 19.2013 183.754 18.996 182.372 18.996C180.842 18.996 179.722 19.2387 179.012 19.724C178.303 20.172 177.948 20.7693 177.948 21.516C177.948 21.9267 178.079 22.2813 178.34 22.58C178.639 22.8787 179.124 23.084 179.796 23.196L184.78 23.98C187.356 24.428 189.279 25.2867 190.548 26.556C191.818 27.8253 192.452 29.412 192.452 31.316C192.452 33.444 191.911 35.236 190.828 36.692C189.783 38.148 188.29 39.2493 186.348 39.996C184.407 40.7427 182.13 41.116 179.516 41.116ZM190.777 50.58L196.769 12.948H206.457L205.785 17.316H205.505C206.177 16.2707 206.98 15.3747 207.913 14.628C208.884 13.844 209.929 13.2653 211.049 12.892C212.207 12.5187 213.42 12.332 214.689 12.332C216.743 12.332 218.535 12.8173 220.065 13.788C221.596 14.7587 222.772 16.14 223.593 17.932C224.452 19.724 224.881 21.852 224.881 24.316C224.881 27.5267 224.303 30.4013 223.145 32.94C221.988 35.4787 220.364 37.476 218.273 38.932C216.183 40.388 213.737 41.116 210.937 41.116C208.959 41.116 207.223 40.6867 205.729 39.828C204.236 38.932 203.172 37.644 202.537 35.964L203.041 36.02L200.745 50.58H190.777ZM208.809 33.78C210.079 33.78 211.161 33.4067 212.057 32.66C212.953 31.876 213.644 30.812 214.129 29.468C214.615 28.124 214.857 26.5933 214.857 24.876C214.857 23.196 214.465 21.908 213.681 21.012C212.935 20.116 211.889 19.668 210.545 19.668C209.276 19.668 208.193 20.06 207.297 20.844C206.401 21.5907 205.692 22.636 205.169 23.98C204.684 25.324 204.441 26.8547 204.441 28.572C204.441 30.252 204.833 31.54 205.617 32.436C206.401 33.332 207.465 33.78 208.809 33.78ZM239.392 41.116C236.368 41.116 233.792 40.5933 231.664 39.548C229.573 38.4653 227.968 36.9533 226.848 35.012C225.765 33.0707 225.224 30.812 225.224 28.236C225.224 25.5853 225.672 23.2707 226.568 21.292C227.501 19.3133 228.733 17.652 230.264 16.308C231.832 14.964 233.587 13.9747 235.528 13.34C237.469 12.668 239.467 12.332 241.52 12.332C244.507 12.332 247.045 12.8733 249.136 13.956C251.264 15.0013 252.888 16.4947 254.008 18.436C255.128 20.34 255.688 22.58 255.688 25.156C255.688 27.844 255.221 30.1773 254.288 32.156C253.392 34.1347 252.16 35.796 250.592 37.14C249.061 38.484 247.325 39.492 245.384 40.164C243.443 40.7987 241.445 41.116 239.392 41.116ZM239.56 33.78C240.829 33.78 241.912 33.4067 242.808 32.66C243.741 31.876 244.451 30.812 244.936 29.468C245.421 28.124 245.664 26.5933 245.664 24.876C245.664 23.196 245.272 21.908 244.488 21.012C243.741 20.116 242.677 19.668 241.296 19.668C240.064 19.668 238.981 20.0413 238.048 20.788C237.152 21.5347 236.461 22.58 235.976 23.924C235.491 25.268 235.248 26.8173 235.248 28.572C235.248 30.252 235.621 31.54 236.368 32.436C237.152 33.332 238.216 33.78 239.56 33.78ZM270.28 41.116C267.256 41.116 264.68 40.5933 262.552 39.548C260.461 38.4653 258.856 36.9533 257.736 35.012C256.653 33.0707 256.112 30.812 256.112 28.236C256.112 25.5853 256.56 23.2707 257.456 21.292C258.389 19.3133 259.621 17.652 261.152 16.308C262.72 14.964 264.474 13.9747 266.416 13.34C268.357 12.668 270.354 12.332 272.408 12.332C275.394 12.332 277.933 12.8733 280.024 13.956C282.152 15.0013 283.776 16.4947 284.896 18.436C286.016 20.34 286.576 22.58 286.576 25.156C286.576 27.844 286.109 30.1773 285.176 32.156C284.28 34.1347 283.048 35.796 281.48 37.14C279.949 38.484 278.213 39.492 276.272 40.164C274.33 40.7987 272.333 41.116 270.28 41.116ZM270.448 33.78C271.717 33.78 272.8 33.4067 273.696 32.66C274.629 31.876 275.338 30.812 275.824 29.468C276.309 28.124 276.552 26.5933 276.552 24.876C276.552 23.196 276.16 21.908 275.376 21.012C274.629 20.116 273.565 19.668 272.184 19.668C270.952 19.668 269.869 20.0413 268.936 20.788C268.04 21.5347 267.349 22.58 266.864 23.924C266.378 25.268 266.136 26.8173 266.136 28.572C266.136 30.252 266.509 31.54 267.256 32.436C268.04 33.332 269.104 33.78 270.448 33.78ZM286.103 40.5L290.471 12.948H300.159L299.431 17.708H299.039C300.01 15.9533 301.316 14.628 302.959 13.732C304.602 12.7987 306.506 12.332 308.671 12.332C310.65 12.332 312.33 12.7427 313.711 13.564C315.13 14.3853 316.119 15.6733 316.679 17.428C317.276 19.1827 317.37 21.4413 316.959 24.204L314.383 40.5H304.415L306.935 24.372C307.084 23.4013 307.084 22.5987 306.935 21.964C306.823 21.292 306.524 20.788 306.039 20.452C305.591 20.116 304.938 19.948 304.079 19.948C303.071 19.948 302.156 20.1907 301.335 20.676C300.551 21.124 299.916 21.796 299.431 22.692C298.946 23.5507 298.591 24.596 298.367 25.828L296.071 40.5H286.103Z" fill="black"/>
</svg>
