<svg width="64" height="64" viewBox="0 0 64 64" fill="none" xmlns="http://www.w3.org/2000/svg">
<path d="M57.6631 51.1189C56.9545 51.3843 56.2164 51.618 55.4489 51.82C53.1689 52.38 50.7889 52.66 48.3089 52.66C46.2689 52.66 44.2089 52.48 42.1289 52.12C40.0889 51.76 38.1289 51.22 36.2489 50.5C34.5482 49.7975 32.9671 48.9413 31.5057 47.9313L33.06 52H21.78L16.98 39.28C16.7 38.56 16.36 37.98 15.96 37.54C15.6 37.06 15.16 36.72 14.64 36.52C14.12 36.32 13.46 36.22 12.66 36.22H9.06L6.62086 51.4936C12.4711 59.0989 21.6632 64 32 64C42.5056 64 51.8288 58.9375 57.6631 51.1189Z" fill="black"/>
<path d="M63.981 30.8858C62.2305 29.2426 59.8865 28.0807 56.9489 27.4L50.0489 25.78C48.6089 25.42 47.5489 24.94 46.8689 24.34C46.1889 23.74 45.8489 22.98 45.8489 22.06C45.8489 21.3 46.1289 20.62 46.6889 20.02C47.2489 19.42 48.0489 18.96 49.0889 18.64C50.1689 18.28 51.4489 18.1 52.9289 18.1C54.7289 18.1 56.6889 18.38 58.8089 18.94C59.7785 19.1778 60.7189 19.4952 61.63 19.892C63.0249 23.3019 63.8482 27.0062 63.981 30.8858Z" fill="black"/>
<path d="M54.3239 9.07305C48.5586 3.45846 40.6832 0 32 0C22.9981 0 14.8643 3.71703 9.04981 9.7H20.4C23.64 9.7 26.36 10.18 28.56 11.14C30.8 12.1 32.5 13.48 33.66 15.28C34.5934 16.7284 35.1513 18.41 35.3336 20.3246C35.5707 19.1967 35.9558 18.1552 36.4889 17.2C37.4489 15.44 38.7689 13.96 40.4489 12.76C42.1289 11.52 44.0489 10.6 46.2089 10C48.3689 9.36 50.6289 9.04 52.9889 9.04C53.4316 9.04 53.8766 9.05102 54.3239 9.07305Z" fill="black"/>
<path d="M31.2877 47.3608L34.7489 39.4C36.3889 40.4 38.0489 41.22 39.7289 41.86C41.4089 42.46 43.0689 42.9 44.7089 43.18C46.3489 43.46 47.9089 43.6 49.3889 43.6C50.9089 43.6 52.1889 43.44 53.2289 43.12C54.2689 42.8 55.0689 42.34 55.6289 41.74C56.1889 41.14 56.4689 40.46 56.4689 39.7C56.4689 39.06 56.3089 38.5 55.9889 38.02C55.6689 37.54 55.1689 37.12 54.4889 36.76C53.8089 36.4 52.9289 36.12 51.8489 35.92L44.9489 34.24C41.9089 33.56 39.4889 32.26 37.6889 30.34C36.2888 28.8126 35.4456 26.994 35.1593 24.8844C34.839 26.8292 34.1993 28.5077 33.24 29.92C31.8 32.04 29.82 33.6 27.3 34.6C26.2782 35.0055 25.1972 35.3287 24.057 35.5698C24.7513 35.844 25.3723 36.2207 25.92 36.7C27.2 37.82 28.22 39.36 28.98 41.32L31.2877 47.3608Z" fill="black"/>
<path d="M18.24 28.42H10.26L11.88 18.16H18.54C20.74 18.16 22.34 18.54 23.34 19.3C24.38 20.06 24.9 21.22 24.9 22.78C24.9 24.66 24.32 26.08 23.16 27.04C22.04 27.96 20.4 28.42 18.24 28.42Z" fill="black"/>
</svg>
