<svg width="64" height="64" viewBox="0 0 64 64" fill="none" xmlns="http://www.w3.org/2000/svg">
<rect width="64" height="64" fill="white"/>
<path d="M0.00553909 7.69951L0.0420006 7.47H20.04C23.604 7.47 26.596 7.998 29.016 9.054C31.48 10.11 33.35 11.628 34.626 13.608C35.6528 15.2013 36.2664 17.051 36.467 19.1571C36.7278 17.9164 37.1514 16.7707 37.7378 15.72C38.7938 13.784 40.2458 12.156 42.0938 10.836C43.9418 9.472 46.0538 8.46 48.4298 7.8C50.8058 7.096 53.2918 6.744 55.8878 6.744C58.5167 6.744 61.22 7.09718 63.9976 7.80355C63.8933 3.47604 60.3526 0 56 0H8C3.68233 0 0.163552 3.42046 0.00553909 7.69951Z" fill="black"/>
<path d="M64 18.1379C63.4394 17.9441 62.8694 17.7762 62.2898 17.634C59.9578 17.018 57.8018 16.71 55.8218 16.71C54.1938 16.71 52.7858 16.908 51.5978 17.304C50.4538 17.656 49.5738 18.162 48.9578 18.822C48.3418 19.482 48.0338 20.23 48.0338 21.066C48.0338 22.078 48.4078 22.914 49.1558 23.574C49.9038 24.234 51.0698 24.762 52.6538 25.158L60.2438 26.94C61.6131 27.2573 62.8652 27.6696 64 28.177V18.1379Z" fill="black"/>
<path d="M64 51.6624C62.3763 52.5676 60.5742 53.2808 58.5938 53.802C56.0858 54.418 53.4678 54.726 50.7398 54.726C48.4958 54.726 46.2298 54.528 43.9418 54.132C41.6978 53.736 39.5418 53.142 37.4738 52.35C35.6031 51.5773 33.8639 50.6354 32.2562 49.5244L33.966 54H21.558L16.278 40.008C15.97 39.216 15.596 38.578 15.156 38.094C14.76 37.566 14.276 37.192 13.704 36.972C13.132 36.752 12.406 36.642 11.526 36.642H7.566L4.794 54H0V56C0 60.4183 3.58172 64 8 64H56C60.4183 64 64 60.4183 64 56V51.6624Z" fill="black"/>
<path d="M32.0165 48.8968L35.8238 40.14C37.6278 41.24 39.4538 42.142 41.3018 42.846C43.1498 43.506 44.9758 43.99 46.7798 44.298C48.5838 44.606 50.2998 44.76 51.9278 44.76C53.5998 44.76 55.0078 44.584 56.1518 44.232C57.2958 43.88 58.1758 43.374 58.7918 42.714C59.4078 42.054 59.7158 41.306 59.7158 40.47C59.7158 39.766 59.5398 39.15 59.1878 38.622C58.8358 38.094 58.2858 37.632 57.5378 37.236C56.7898 36.84 55.8218 36.532 54.6338 36.312L47.0438 34.464C43.6998 33.716 41.0378 32.286 39.0578 30.174C37.5177 28.4938 36.5901 26.4935 36.2752 24.1728C35.9229 26.3121 35.2192 28.1585 34.164 29.712C32.58 32.044 30.402 33.76 27.63 34.86C26.506 35.306 25.3169 35.6616 24.0627 35.9268C24.8264 36.2284 25.5095 36.6428 26.112 37.17C27.52 38.402 28.642 40.096 29.478 42.252L32.0165 48.8968Z" fill="black"/>
<path d="M17.664 28.062H8.886L10.668 16.776H17.994C20.414 16.776 22.174 17.194 23.274 18.03C24.418 18.866 24.99 20.142 24.99 21.858C24.99 23.926 24.352 25.488 23.076 26.544C21.844 27.556 20.04 28.062 17.664 28.062Z" fill="black"/>
</svg>
