<svg width="320" height="132" viewBox="0 0 320 132" fill="none" xmlns="http://www.w3.org/2000/svg">
<path d="M288.448 81.0454L292.878 53.0988H302.705L301.966 57.927H301.569C302.553 56.1472 303.879 54.8029 305.545 53.8941C307.211 52.9474 309.142 52.474 311.339 52.474C313.346 52.474 315.05 52.8906 316.451 53.7237C317.89 54.5567 318.893 55.8632 319.461 57.643C320.067 59.4228 320.162 61.7138 319.745 64.516L317.133 81.0454H307.022L309.578 64.6864C309.729 63.7019 309.729 62.8877 309.578 62.2439C309.464 61.5623 309.161 61.0511 308.669 60.7103C308.215 60.3695 307.552 60.1991 306.681 60.1991C305.659 60.1991 304.731 60.4452 303.898 60.9375C303.102 61.3919 302.459 62.0735 301.966 62.9824C301.474 63.8533 301.114 64.9136 300.887 66.1633L298.558 81.0454H288.448Z" fill="white"/>
<path d="M272.397 81.6702C269.33 81.6702 266.717 81.1401 264.559 80.0798C262.438 78.9816 260.81 77.4479 259.674 75.4788C258.576 73.5097 258.027 71.2187 258.027 68.6058C258.027 65.9171 258.481 63.5693 259.39 61.5623C260.337 59.5553 261.586 57.8702 263.139 56.5069C264.729 55.1437 266.509 54.1402 268.478 53.4964C270.447 52.8148 272.473 52.474 274.556 52.474C277.585 52.474 280.16 53.0231 282.281 54.1213C284.439 55.1816 286.087 56.6963 287.223 58.6654C288.359 60.5967 288.927 62.8688 288.927 65.4817C288.927 68.2082 288.453 70.5749 287.507 72.5819C286.598 74.5889 285.348 76.274 283.758 77.6373C282.205 79.0005 280.444 80.023 278.475 80.7046C276.506 81.3483 274.48 81.6702 272.397 81.6702ZM272.568 74.2292C273.855 74.2292 274.954 73.8505 275.862 73.0931C276.809 72.2979 277.529 71.2187 278.021 69.8554C278.513 68.4922 278.759 66.9396 278.759 65.1977C278.759 63.4936 278.362 62.1871 277.566 61.2783C276.809 60.3695 275.73 59.9151 274.329 59.9151C273.079 59.9151 271.981 60.2937 271.034 61.0511C270.125 61.8085 269.425 62.8688 268.933 64.232C268.44 65.5953 268.194 67.1668 268.194 68.9466C268.194 70.6506 268.573 71.9571 269.33 72.8659C270.125 73.7747 271.205 74.2292 272.568 74.2292Z" fill="white"/>
<path d="M241.068 81.6702C238 81.6702 235.387 81.1401 233.229 80.0798C231.108 78.9816 229.48 77.4479 228.344 75.4788C227.246 73.5097 226.697 71.2187 226.697 68.6058C226.697 65.9171 227.151 63.5693 228.06 61.5623C229.007 59.5553 230.256 57.8702 231.809 56.5069C233.399 55.1437 235.179 54.1402 237.148 53.4964C239.117 52.8148 241.143 52.474 243.226 52.474C246.256 52.474 248.831 53.0231 250.951 54.1213C253.11 55.1816 254.757 56.6963 255.893 58.6654C257.029 60.5967 257.597 62.8688 257.597 65.4817C257.597 68.2082 257.124 70.5749 256.177 72.5819C255.268 74.5889 254.018 76.274 252.428 77.6373C250.875 79.0005 249.115 80.023 247.145 80.7046C245.176 81.3483 243.15 81.6702 241.068 81.6702ZM241.238 74.2292C242.526 74.2292 243.624 73.8505 244.533 73.0931C245.479 72.2979 246.199 71.2187 246.691 69.8554C247.183 68.4922 247.429 66.9396 247.429 65.1977C247.429 63.4936 247.032 62.1871 246.237 61.2783C245.479 60.3695 244.4 59.9151 242.999 59.9151C241.749 59.9151 240.651 60.2937 239.704 61.0511C238.796 61.8085 238.095 62.8688 237.603 64.232C237.11 65.5953 236.864 67.1668 236.864 68.9466C236.864 70.6506 237.243 71.9571 238 72.8659C238.796 73.7747 239.875 74.2292 241.238 74.2292Z" fill="white"/>
<path d="M191.757 91.2698L197.835 53.0988H207.661L206.98 57.5294H206.696C207.377 56.4691 208.192 55.5602 209.138 54.8029C210.123 54.0077 211.183 53.4207 212.319 53.042C213.493 52.6633 214.724 52.474 216.011 52.474C218.094 52.474 219.912 52.9663 221.464 53.9509C223.017 54.9354 224.21 56.3365 225.043 58.1542C225.914 59.9719 226.349 62.1303 226.349 64.6296C226.349 67.8863 225.762 70.8021 224.588 73.3771C223.414 75.9522 221.767 77.9781 219.647 79.4549C217.526 80.9318 215.046 81.6702 212.206 81.6702C210.199 81.6702 208.438 81.2347 206.923 80.3638C205.408 79.455 204.329 78.1485 203.685 76.4444L204.196 76.5012L201.868 91.2698H191.757ZM210.047 74.2292C211.335 74.2292 212.433 73.8505 213.342 73.0931C214.25 72.2979 214.951 71.2187 215.443 69.8554C215.936 68.4922 216.182 66.9396 216.182 65.1977C216.182 63.4936 215.784 62.1871 214.989 61.2783C214.231 60.3695 213.171 59.9151 211.808 59.9151C210.52 59.9151 209.422 60.3127 208.513 61.1079C207.605 61.8653 206.885 62.9256 206.355 64.2888C205.863 65.6521 205.617 67.2047 205.617 68.9466C205.617 70.6506 206.014 71.9571 206.809 72.8659C207.605 73.7747 208.684 74.2292 210.047 74.2292Z" fill="white"/>
<path d="M180.334 81.6702C177.873 81.6702 175.506 81.4051 173.234 80.875C171 80.307 169.106 79.4928 167.554 78.4325L170.337 72.0139C171.284 72.5819 172.306 73.0931 173.404 73.5475C174.541 73.9641 175.695 74.286 176.869 74.5132C178.081 74.7404 179.217 74.854 180.277 74.854C181.754 74.854 182.834 74.6268 183.515 74.1724C184.197 73.7179 184.538 73.1499 184.538 72.4683C184.538 71.9382 184.367 71.5405 184.026 71.2755C183.686 71.0104 183.08 70.8021 182.209 70.6506L177.153 69.7986C174.806 69.4199 172.988 68.5868 171.7 67.2993C170.451 65.9739 169.826 64.3456 169.826 62.4144C169.826 60.6724 170.337 59.0441 171.36 57.5294C172.42 56.0147 173.972 54.8029 176.017 53.8941C178.1 52.9474 180.694 52.474 183.799 52.474C184.935 52.474 186.128 52.5876 187.378 52.8148C188.665 53.0042 189.915 53.3071 191.127 53.7237C192.338 54.1402 193.437 54.6893 194.421 55.3709L191.695 61.6759C190.407 60.8428 189.025 60.2369 187.548 59.8583C186.071 59.4417 184.632 59.2334 183.231 59.2334C181.679 59.2334 180.543 59.4796 179.823 59.9719C179.104 60.4263 178.744 61.0322 178.744 61.7895C178.744 62.2061 178.876 62.5658 179.141 62.8688C179.444 63.1717 179.937 63.38 180.618 63.4936L185.674 64.2888C188.287 64.7432 190.237 65.6142 191.524 66.9017C192.812 68.1892 193.456 69.7986 193.456 71.7299C193.456 73.8884 192.906 75.706 191.808 77.1829C190.748 78.6597 189.233 79.7768 187.264 80.5342C185.295 81.2915 182.985 81.6702 180.334 81.6702Z" fill="white"/>
<path d="M146.554 81.0454L150.984 53.0988H160.811L159.732 59.9719H159.22C159.864 57.7755 161.038 56.0147 162.742 54.6893C164.484 53.3639 166.586 52.6255 169.047 52.474L171.774 52.3036L171.319 60.8239L165.014 61.4487C163.689 61.5623 162.61 61.8463 161.776 62.3008C160.981 62.7552 160.356 63.4179 159.902 64.2888C159.485 65.1219 159.164 66.2201 158.936 67.5833L156.835 81.0454H146.554Z" fill="white"/>
<path d="M133.622 81.6702C130.63 81.6702 128.017 81.1401 125.783 80.0798C123.549 78.9816 121.807 77.4479 120.557 75.4788C119.308 73.5097 118.683 71.2187 118.683 68.6058C118.683 65.387 119.383 62.5658 120.785 60.1423C122.224 57.7187 124.155 55.8443 126.578 54.5189C129.04 53.1556 131.766 52.474 134.758 52.474C137.939 52.474 140.495 53.1556 142.426 54.5189C144.395 55.8443 145.758 57.6619 146.516 59.9719C147.273 62.2818 147.463 64.8379 147.084 67.6401L146.857 69.117H126.919L127.601 64.3456H140.211L139.302 65.084C139.491 63.9101 139.435 62.8688 139.132 61.9599C138.866 61.0511 138.355 60.3505 137.598 59.8583C136.878 59.3281 135.894 59.063 134.644 59.063C133.432 59.063 132.41 59.3281 131.577 59.8583C130.744 60.3884 130.062 61.1079 129.532 62.0167C129.04 62.9256 128.718 63.948 128.566 65.084L128.169 67.2993C127.942 68.7762 128.036 70.0448 128.453 71.1051C128.907 72.1275 129.665 72.9038 130.725 73.4339C131.823 73.9641 133.167 74.2292 134.758 74.2292C136.31 74.2292 137.825 74.0209 139.302 73.6043C140.817 73.1499 142.123 72.5251 143.221 71.7299L145.323 78.3189C143.922 79.3792 142.199 80.2123 140.154 80.8182C138.147 81.3862 135.97 81.6702 133.622 81.6702Z" fill="white"/>
<path d="M104.248 81.6702C102.241 81.6702 100.481 81.2347 98.9659 80.3638C97.4512 79.4549 96.3719 78.1485 95.7282 76.4444H96.0122L95.2738 81.0454H85.447L91.8089 41H101.92L99.2499 57.5294H98.6819C99.4014 56.4691 100.234 55.5602 101.181 54.8029C102.166 54.0077 103.226 53.4207 104.362 53.042C105.536 52.6633 106.767 52.474 108.054 52.474C110.137 52.474 111.955 52.9663 113.507 53.9508C115.06 54.9354 116.253 56.3365 117.086 58.1542C117.957 59.9719 118.392 62.1303 118.392 64.6296C118.392 67.8863 117.805 70.8021 116.631 73.3771C115.457 75.9522 113.81 77.9781 111.69 79.4549C109.569 80.9318 107.089 81.6702 104.248 81.6702ZM102.09 74.2292C103.378 74.2292 104.476 73.8505 105.385 73.0931C106.293 72.2979 106.994 71.2187 107.486 69.8554C107.978 68.4922 108.225 66.9396 108.225 65.1976C108.225 63.4936 107.827 62.1871 107.032 61.2783C106.274 60.3695 105.214 59.9151 103.851 59.9151C102.563 59.9151 101.465 60.3127 100.556 61.1079C99.6475 61.8653 98.928 62.9256 98.3979 64.2888C97.9056 65.6521 97.6595 67.2046 97.6595 68.9466C97.6595 70.6506 98.0571 71.9571 98.8523 72.8659C99.6475 73.7747 100.727 74.2292 102.09 74.2292Z" fill="white"/>
<path d="M71.8647 81.6702C69.8577 81.6702 68.0968 81.2347 66.5821 80.3638C65.0674 79.4549 63.9882 78.1485 63.3444 76.4444H63.6284L62.89 81.0454H53.0633L59.4251 41H69.5358L66.8661 57.5294H66.2981C67.0176 56.4691 67.8507 55.5602 68.7974 54.8029C69.782 54.0077 70.8423 53.4207 71.9783 53.042C73.1522 52.6633 74.3829 52.474 75.6704 52.474C77.7532 52.474 79.5708 52.9663 81.1234 53.9508C82.676 54.9354 83.8689 56.3365 84.702 58.1542C85.5729 59.9719 86.0084 62.1303 86.0084 64.6296C86.0084 67.8863 85.4215 70.8021 84.2475 73.3771C83.0736 75.9522 81.4264 77.9781 79.3058 79.4549C77.1852 80.9318 74.7048 81.6702 71.8647 81.6702ZM69.7062 74.2292C70.9937 74.2292 72.0919 73.8505 73.0008 73.0931C73.9096 72.2979 74.6101 71.2187 75.1024 69.8554C75.5947 68.4922 75.8409 66.9396 75.8409 65.1976C75.8409 63.4936 75.4432 62.1871 74.648 61.2783C73.8907 60.3695 72.8303 59.9151 71.4671 59.9151C70.1796 59.9151 69.0814 60.3127 68.1726 61.1079C67.2638 61.8653 66.5443 62.9256 66.0141 64.2888C65.5218 65.6521 65.2757 67.2046 65.2757 68.9466C65.2757 70.6506 65.6733 71.9571 66.4685 72.8659C67.2637 73.7747 68.343 74.2292 69.7062 74.2292Z" fill="white"/>
<path d="M31.786 81.6702C29.8169 81.6702 28.1128 81.2537 26.6739 80.4206C25.2727 79.5875 24.2692 78.281 23.6634 76.5012C23.0953 74.7214 23.0196 72.4304 23.4362 69.6282L26.049 53.0988H36.1598L33.6037 69.4578C33.4522 70.4045 33.4333 71.2186 33.5469 71.9003C33.6984 72.5819 34.0013 73.0931 34.4557 73.4339C34.9102 73.7747 35.5539 73.9451 36.387 73.9451C37.3716 73.9451 38.2425 73.7179 38.9999 73.2635C39.7951 72.7712 40.4389 72.0707 40.9312 71.1618C41.4613 70.253 41.8211 69.1738 42.0104 67.9241L44.3393 53.0988H54.45L50.0195 81.0454H40.1359L40.8744 76.1604H41.3288C40.3821 77.9402 39.0756 79.3035 37.4094 80.2502C35.7432 81.1969 33.8688 81.6702 31.786 81.6702Z" fill="white"/>
<path d="M0 81.0454L4.43055 53.0988H14.2573L13.1781 59.9719H12.6668C13.3106 57.7755 14.4845 56.0147 16.1886 54.6893C17.9305 53.3639 20.0322 52.6255 22.4936 52.474L25.2201 52.3036L24.7657 60.8239L18.4606 61.4487C17.1353 61.5623 16.056 61.8463 15.2229 62.3008C14.4277 62.7552 13.8029 63.4179 13.3485 64.2888C12.9319 65.1219 12.61 66.2201 12.3828 67.5833L10.2812 81.0454H0Z" fill="white"/>
</svg>
