<svg width="128" height="128" viewBox="0 0 128 128" fill="none" xmlns="http://www.w3.org/2000/svg">
<rect width="128" height="128" rx="16" fill="black"/>
<path fill-rule="evenodd" clip-rule="evenodd" d="M0.131385 13.94H40.08C47.208 13.94 53.192 14.996 58.032 17.108C62.96 19.22 66.7 22.256 69.252 26.216C71.3056 29.4025 72.5329 33.1019 72.934 37.3142C73.4555 34.8328 74.3027 32.5414 75.4756 30.44C77.5876 26.568 80.4916 23.312 84.1876 20.672C87.8836 17.944 92.1076 15.92 96.8596 14.6C101.612 13.192 106.584 12.488 111.776 12.488C117.016 12.488 122.403 13.1896 127.939 14.5928C127.226 6.41529 120.362 0 112 0H16C7.86145 0 1.14214 6.07644 0.131385 13.94ZM128 35.2759C126.879 34.8883 125.739 34.5523 124.58 34.268C119.916 33.036 115.604 32.42 111.644 32.42C108.388 32.42 105.572 32.816 103.196 33.608C100.908 34.312 99.1476 35.324 97.9156 36.644C96.6836 37.964 96.0676 39.46 96.0676 41.132C96.0676 43.156 96.8156 44.828 98.3116 46.148C99.8076 47.468 102.14 48.524 105.308 49.316L120.488 52.88C123.226 53.5146 125.73 54.3392 128 55.3541V35.2759ZM128 102.325C124.753 104.135 121.148 105.562 117.188 106.604C112.172 107.836 106.936 108.452 101.48 108.452C96.9916 108.452 92.4596 108.056 87.8836 107.264C83.3956 106.472 79.0836 105.284 74.9476 103.7C71.2061 102.155 67.7277 100.271 64.5125 98.0489L67.932 107H43.116L32.556 79.016C31.94 77.432 31.192 76.156 30.312 75.188C29.52 74.132 28.552 73.384 27.408 72.944C26.264 72.504 24.812 72.284 23.052 72.284H15.132L9.588 107H0V112C0 120.837 7.16344 128 16 128H112C120.837 128 128 120.837 128 112V102.325ZM64.033 96.7937L71.6476 79.28C75.2556 81.48 78.9076 83.284 82.6036 84.692C86.2996 86.012 89.9516 86.98 93.5596 87.596C97.1676 88.212 100.6 88.52 103.856 88.52C107.2 88.52 110.016 88.168 112.304 87.464C114.592 86.76 116.352 85.748 117.584 84.428C118.816 83.108 119.432 81.612 119.432 79.94C119.432 78.532 119.08 77.3 118.376 76.244C117.672 75.188 116.572 74.264 115.076 73.472C113.58 72.68 111.644 72.064 109.268 71.624L94.0876 67.928C87.3996 66.432 82.0756 63.572 78.1156 59.348C75.0353 55.9877 73.1802 51.9869 72.5504 47.3457C71.8459 51.6242 70.4384 55.317 68.328 58.424C65.16 63.088 60.804 66.52 55.26 68.72C53.012 69.612 50.6339 70.3232 48.1255 70.8536C49.6528 71.4568 51.019 72.2856 52.224 73.34C55.04 75.804 57.284 79.192 58.956 83.504L64.033 96.7937ZM35.328 55.124H17.772L21.336 32.552H35.988C40.828 32.552 44.348 33.388 46.548 35.06C48.836 36.732 49.98 39.284 49.98 42.716C49.98 46.852 48.704 49.976 46.152 52.088C43.688 54.112 40.08 55.124 35.328 55.124Z" fill="white"/>
</svg>
