<svg width="128" height="128" viewBox="0 0 128 128" fill="none" xmlns="http://www.w3.org/2000/svg">
<circle cx="64" cy="64" r="64" fill="white"/>
<path fill-rule="evenodd" clip-rule="evenodd" d="M116.337 100.844C114.615 101.54 112.802 102.139 110.898 102.64C106.338 103.76 101.578 104.32 96.6179 104.32C92.5379 104.32 88.4179 103.96 84.2579 103.24C80.1779 102.52 76.2579 101.44 72.4979 100C69.0965 98.5951 65.9343 96.8826 63.0114 94.8626L66.1201 103H43.5601L33.9601 77.56C33.4001 76.12 32.7201 74.96 31.9201 74.08C31.2001 73.12 30.3201 72.44 29.2801 72.04C28.2401 71.64 26.9201 71.44 25.3201 71.44H18.1201L13.1096 102.815C24.8036 118.124 43.2484 128 64.0001 128C85.6291 128 104.752 117.271 116.337 100.844ZM62.5755 93.7215L57.9601 81.64C56.4401 77.72 54.4001 74.64 51.8401 72.4C50.7446 71.4414 49.5026 70.688 48.1141 70.1396C50.3945 69.6575 52.5564 69.011 54.6001 68.2C59.6401 66.2 63.6001 63.08 66.4801 58.84C68.3986 56.0155 69.6781 52.6584 70.3186 48.7688C70.8912 52.9881 72.5776 56.6252 75.3779 59.68C78.9779 63.52 83.8179 66.12 89.8979 67.48L103.698 70.84C105.858 71.24 107.618 71.8 108.978 72.52C110.338 73.24 111.338 74.08 111.978 75.04C112.618 76 112.938 77.12 112.938 78.4C112.938 79.92 112.378 81.28 111.258 82.48C110.138 83.68 108.538 84.6 106.458 85.24C104.378 85.88 101.818 86.2 98.7779 86.2C95.8179 86.2 92.6979 85.92 89.4179 85.36C86.1379 84.8 82.8179 83.92 79.4579 82.72C76.0979 81.44 72.7779 79.8 69.4979 77.8L62.5755 93.7215ZM70.6673 39.6492C71.1414 37.3934 71.9116 35.3104 72.9779 33.4C74.8979 29.88 77.5379 26.92 80.8979 24.52C84.2579 22.04 88.0979 20.2 92.4179 19C96.7379 17.72 101.258 17.08 105.978 17.08C106.501 17.08 107.025 17.0877 107.551 17.1031C96.1283 6.49014 80.8221 0 64.0001 0C46.5032 0 30.6462 7.02128 19.093 18.4H40.8001C47.2801 18.4 52.7201 19.36 57.1201 21.28C61.6001 23.2 65.0001 25.96 67.3201 29.56C69.1869 32.4569 70.3027 35.8199 70.6673 39.6492ZM122.747 38.5652C125.716 45.4153 127.523 52.8867 127.918 60.7303C124.422 57.4657 119.748 55.1556 113.898 53.8L100.098 50.56C97.2179 49.84 95.0979 48.88 93.7379 47.68C92.3779 46.48 91.6979 44.96 91.6979 43.12C91.6979 41.6 92.2579 40.24 93.3779 39.04C94.4979 37.84 96.0979 36.92 98.1779 36.28C100.338 35.56 102.898 35.2 105.858 35.2C109.458 35.2 113.378 35.76 117.618 36.88C119.376 37.3111 121.085 37.8729 122.747 38.5652ZM36.4801 55.84H20.5201L23.7601 35.32H37.0801C41.4801 35.32 44.6801 36.08 46.6801 37.6C48.7601 39.12 49.8001 41.44 49.8001 44.56C49.8001 48.32 48.6401 51.16 46.3201 53.08C44.0801 54.92 40.8001 55.84 36.4801 55.84Z" fill="black"/>
</svg>
